<svg xmlns="http://www.w3.org/2000/svg" viewBox="0 0 512 512">
  <rect width="512" height="512" rx="112" fill="#0ea5a4" />
  <circle cx="256" cy="188" r="92" fill="#ffffff" opacity="0.18" />
  <path
    d="M352 152c-24-30-58-48-96-48s-72 18-96 48c-24 29-35 66-28 103l20 145c5 26 28 44 54 44h100c26 0 49-18 54-44l20-145c7-37-4-74-28-103Zm-96 226a30 30 0 1 1 0-60 30 30 0 0 1 0 60Zm52-112c-21 18-83 18-104 0-10-9-11-25-2-35 9-10 25-11 35-2 8 6 28 6 36 0 10-9 26-8 35 2 9 10 8 26-2 35Z"
    fill="#ffffff"
  />
</svg>
